<svg width="22" height="52" viewBox="0 0 22 52" fill="none" xmlns="http://www.w3.org/2000/svg">
<path d="M1.35717 2.55729L1.35745 2.5569C1.91483 1.77575 2.61168 1.43292 3.2573 1.42851C3.9022 1.4241 4.58736 1.75656 5.12593 2.51135L20.0434 23.4176L20.0437 23.418C20.3093 23.7895 20.5254 24.2386 20.6744 24.742C20.8234 25.2452 20.9009 25.788 20.9009 26.3383C20.9009 26.8886 20.8234 27.4314 20.6744 27.9346C20.5254 28.4381 20.3093 28.8871 20.0437 29.2586L20.0434 29.259L5.12593 50.1653C4.58906 50.9177 3.90356 51.2858 3.24169 51.2858C2.57982 51.2858 1.89432 50.9177 1.35745 50.1653C0.819084 49.4108 0.501376 48.3612 0.501376 47.2446C0.501376 46.128 0.819084 45.0784 1.35745 44.3239L13.9675 26.6515L14.1747 26.3611L13.9675 26.0707L1.35745 8.39825L1.35717 8.39786C1.09157 8.02639 0.875495 7.57733 0.726477 7.07387C0.577536 6.57067 0.5 6.0279 0.5 5.47757C0.5 4.92725 0.577536 4.38448 0.726477 3.88128C0.875495 3.37782 1.09157 2.92876 1.35717 2.55729Z" fill="#D9D9D9" stroke="black"/>
</svg>
