<svg width="22" height="52" viewBox="0 0 22 52" fill="none" xmlns="http://www.w3.org/2000/svg">
<path d="M20.0437 50.1568L20.0434 50.1572C19.486 50.9384 18.7892 51.2812 18.1436 51.2856C17.4987 51.29 16.8135 50.9576 16.2749 50.2028L1.35745 29.2965L1.35716 29.2961C1.09156 28.9246 0.875483 28.4756 0.726466 27.9721C0.577526 27.4689 0.499993 26.9261 0.499993 26.3758C0.499993 25.8255 0.577526 25.2827 0.726465 24.7795C0.875483 24.2761 1.09156 23.827 1.35716 23.4555L1.35744 23.4551L16.2749 2.54884C16.8118 1.79644 17.4973 1.42835 18.1592 1.42835C18.8211 1.42835 19.5066 1.79644 20.0434 2.54884C20.5818 3.30334 20.8995 4.35295 20.8995 5.46953C20.8995 6.5861 20.5818 7.63569 20.0434 8.3902L7.43343 26.0626L7.2262 26.353L7.43343 26.6434L20.0434 44.3159L20.0437 44.3163C20.3093 44.6877 20.5254 45.1368 20.6744 45.6402C20.8233 46.1434 20.9009 46.6862 20.9009 47.2365C20.9009 47.7869 20.8233 48.3296 20.6744 48.8328C20.5254 49.3363 20.3093 49.7854 20.0437 50.1568Z" fill="#D9D9D9" stroke="black"/>
</svg>
